<svg version="1.1" xmlns="http://www.w3.org/2000/svg" viewBox="0 0 186.3924364728291 183.64668669604947" width="559.1773094184873" height="550.9400600881484">
  <!-- svg-source:excalidraw -->
  
  <defs>
    <style class="style-fonts">
      @font-face {
        font-family: "Virgil";
        src: url("https://excalidraw.com/Virgil.woff2");
      }
      @font-face {
        font-family: "Cascadia";
        src: url("https://excalidraw.com/Cascadia.woff2");
      }
      @font-face {
        font-family: "Assistant";
        src: url("https://excalidraw.com/Assistant-Regular.woff2");
      }
    </style>
    
  </defs>
  <rect x="0" y="0" width="186.3924364728291" height="183.64668669604947" fill="#ffffff"></rect><g stroke-linecap="round" transform="translate(10.000000000000227 10) rotate(0 82.37249330338057 51.07094584809596)"><path d="M25.54 0 C51.82 0, 78.09 0, 139.21 0 C156.23 0, 164.74 8.51, 164.74 25.54 C164.74 39.56, 164.74 53.59, 164.74 76.61 C164.74 93.63, 156.23 102.14, 139.21 102.14 C109.3 102.14, 79.4 102.14, 25.54 102.14 C8.51 102.14, 0 93.63, 0 76.61 C0 60.54, 0 44.47, 0 25.54 C0 8.51, 8.51 0, 25.54 0" stroke="none" stroke-width="0" fill="#1e1e1e"></path><path d="M25.54 0 C51.43 0, 77.31 0, 139.21 0 M25.54 0 C59.43 0, 93.32 0, 139.21 0 M139.21 0 C156.23 0, 164.74 8.51, 164.74 25.54 M139.21 0 C156.23 0, 164.74 8.51, 164.74 25.54 M164.74 25.54 C164.74 44.6, 164.74 63.66, 164.74 76.61 M164.74 25.54 C164.74 43.48, 164.74 61.42, 164.74 76.61 M164.74 76.61 C164.74 93.63, 156.23 102.14, 139.21 102.14 M164.74 76.61 C164.74 93.63, 156.23 102.14, 139.21 102.14 M139.21 102.14 C114.51 102.14, 89.81 102.14, 25.54 102.14 M139.21 102.14 C106.9 102.14, 74.59 102.14, 25.54 102.14 M25.54 102.14 C8.51 102.14, 0 93.63, 0 76.61 M25.54 102.14 C8.51 102.14, 0 93.63, 0 76.61 M0 76.61 C0 64.75, 0 52.9, 0 25.54 M0 76.61 C0 59.98, 0 43.36, 0 25.54 M0 25.54 C0 8.51, 8.51 0, 25.54 0 M0 25.54 C0 8.51, 8.51 0, 25.54 0" stroke="#ffffff" stroke-width="2" fill="none"></path></g><g stroke-linecap="round" transform="translate(11.098299910712058 19.88469919640565) rotate(0 82.37249330338057 51.070945848095946)"><path d="M25.54 0 C62.38 0, 99.23 0, 139.21 0 C156.23 0, 164.74 8.51, 164.74 25.54 C164.74 36.01, 164.74 46.48, 164.74 76.61 C164.74 93.63, 156.23 102.14, 139.21 102.14 C116.05 102.14, 92.89 102.14, 25.54 102.14 C8.51 102.14, 0 93.63, 0 76.61 C0 61.67, 0 46.74, 0 25.54 C0 8.51, 8.51 0, 25.54 0" stroke="none" stroke-width="0" fill="#1e1e1e"></path><path d="M25.54 0 C67.83 0, 110.12 0, 139.21 0 M25.54 0 C52.15 0, 78.75 0, 139.21 0 M139.21 0 C156.23 0, 164.74 8.51, 164.74 25.54 M139.21 0 C156.23 0, 164.74 8.51, 164.74 25.54 M164.74 25.54 C164.74 43.13, 164.74 60.72, 164.74 76.61 M164.74 25.54 C164.74 38.99, 164.74 52.44, 164.74 76.61 M164.74 76.61 C164.74 93.63, 156.23 102.14, 139.21 102.14 M164.74 76.61 C164.74 93.63, 156.23 102.14, 139.21 102.14 M139.21 102.14 C96.68 102.14, 54.15 102.14, 25.54 102.14 M139.21 102.14 C114.09 102.14, 88.96 102.14, 25.54 102.14 M25.54 102.14 C8.51 102.14, 0 93.63, 0 76.61 M25.54 102.14 C8.51 102.14, 0 93.63, 0 76.61 M0 76.61 C0 60.77, 0 44.92, 0 25.54 M0 76.61 C0 62.28, 0 47.95, 0 25.54 M0 25.54 C0 8.51, 8.51 0, 25.54 0 M0 25.54 C0 8.51, 8.51 0, 25.54 0" stroke="#ffffff" stroke-width="2" fill="none"></path></g><g stroke-linecap="round" transform="translate(10 31.41684825887893) rotate(0 82.37249330338057 51.07094584809596)"><path d="M25.54 0 C59.33 0, 93.13 0, 139.21 0 C156.23 0, 164.74 8.51, 164.74 25.54 C164.74 44.58, 164.74 63.63, 164.74 76.61 C164.74 93.63, 156.23 102.14, 139.21 102.14 C99.66 102.14, 60.12 102.14, 25.54 102.14 C8.51 102.14, 0 93.63, 0 76.61 C0 62.99, 0 49.38, 0 25.54 C0 8.51, 8.51 0, 25.54 0" stroke="none" stroke-width="0" fill="#1e1e1e"></path><path d="M25.54 0 C54.41 0, 83.28 0, 139.21 0 M25.54 0 C67.66 0, 109.79 0, 139.21 0 M139.21 0 C156.23 0, 164.74 8.51, 164.74 25.54 M139.21 0 C156.23 0, 164.74 8.51, 164.74 25.54 M164.74 25.54 C164.74 44.13, 164.74 62.72, 164.74 76.61 M164.74 25.54 C164.74 39.42, 164.74 53.31, 164.74 76.61 M164.74 76.61 C164.74 93.63, 156.23 102.14, 139.21 102.14 M164.74 76.61 C164.74 93.63, 156.23 102.14, 139.21 102.14 M139.21 102.14 C114.51 102.14, 89.82 102.14, 25.54 102.14 M139.21 102.14 C108.06 102.14, 76.91 102.14, 25.54 102.14 M25.54 102.14 C8.51 102.14, 0 93.63, 0 76.61 M25.54 102.14 C8.51 102.14, 0 93.63, 0 76.61 M0 76.61 C0 56.43, 0 36.25, 0 25.54 M0 76.61 C0 58.29, 0 39.98, 0 25.54 M0 25.54 C0 8.51, 8.51 0, 25.54 0 M0 25.54 C0 8.51, 8.51 0, 25.54 0" stroke="#ffffff" stroke-width="2" fill="none"></path></g><g stroke-linecap="round" transform="translate(10.000000000000227 44.59644718741984) rotate(0 82.37249330338057 51.070945848095974)"><path d="M25.54 0 C51.34 0, 77.14 0, 139.21 0 C156.23 0, 164.74 8.51, 164.74 25.54 C164.74 36.42, 164.74 47.31, 164.74 76.61 C164.74 93.63, 156.23 102.14, 139.21 102.14 C98.99 102.14, 58.77 102.14, 25.54 102.14 C8.51 102.14, 0 93.63, 0 76.61 C0 64.26, 0 51.91, 0 25.54 C0 8.51, 8.51 0, 25.54 0" stroke="none" stroke-width="0" fill="#1e1e1e"></path><path d="M25.54 0 C52.69 0, 79.84 0, 139.21 0 M25.54 0 C57.45 0, 89.36 0, 139.21 0 M139.21 0 C156.23 0, 164.74 8.51, 164.74 25.54 M139.21 0 C156.23 0, 164.74 8.51, 164.74 25.54 M164.74 25.54 C164.74 39.47, 164.74 53.4, 164.74 76.61 M164.74 25.54 C164.74 38.6, 164.74 51.67, 164.74 76.61 M164.74 76.61 C164.74 93.63, 156.23 102.14, 139.21 102.14 M164.74 76.61 C164.74 93.63, 156.23 102.14, 139.21 102.14 M139.21 102.14 C109.36 102.14, 79.51 102.14, 25.54 102.14 M139.21 102.14 C112.31 102.14, 85.41 102.14, 25.54 102.14 M25.54 102.14 C8.51 102.14, 0 93.63, 0 76.61 M25.54 102.14 C8.51 102.14, 0 93.63, 0 76.61 M0 76.61 C0 56.3, 0 36, 0 25.54 M0 76.61 C0 60.63, 0 44.66, 0 25.54 M0 25.54 C0 8.51, 8.51 0, 25.54 0 M0 25.54 C0 8.51, 8.51 0, 25.54 0" stroke="#ffffff" stroke-width="2" fill="none"></path></g><g stroke-linecap="round" transform="translate(10.549149955356143 57.776046115960696) rotate(0 82.37249330338057 51.07094584809596)"><path d="M25.54 0 C70.07 0, 114.61 0, 139.21 0 C156.23 0, 164.74 8.51, 164.74 25.54 C164.74 40.97, 164.74 56.41, 164.74 76.61 C164.74 93.63, 156.23 102.14, 139.21 102.14 C96.69 102.14, 54.16 102.14, 25.54 102.14 C8.51 102.14, 0 93.63, 0 76.61 C0 66.01, 0 55.42, 0 25.54 C0 8.51, 8.51 0, 25.54 0" stroke="none" stroke-width="0" fill="#1e1e1e"></path><path d="M25.54 0 C54.16 0, 82.78 0, 139.21 0 M25.54 0 C63.78 0, 102.02 0, 139.21 0 M139.21 0 C156.23 0, 164.74 8.51, 164.74 25.54 M139.21 0 C156.23 0, 164.74 8.51, 164.74 25.54 M164.74 25.54 C164.74 41.18, 164.74 56.83, 164.74 76.61 M164.74 25.54 C164.74 42.67, 164.74 59.8, 164.74 76.61 M164.74 76.61 C164.74 93.63, 156.23 102.14, 139.21 102.14 M164.74 76.61 C164.74 93.63, 156.23 102.14, 139.21 102.14 M139.21 102.14 C113.2 102.14, 87.19 102.14, 25.54 102.14 M139.21 102.14 C108.83 102.14, 78.46 102.14, 25.54 102.14 M25.54 102.14 C8.51 102.14, 0 93.63, 0 76.61 M25.54 102.14 C8.51 102.14, 0 93.63, 0 76.61 M0 76.61 C0 62.89, 0 49.17, 0 25.54 M0 76.61 C0 58.97, 0 41.32, 0 25.54 M0 25.54 C0 8.51, 8.51 0, 25.54 0 M0 25.54 C0 8.51, 8.51 0, 25.54 0" stroke="#ffffff" stroke-width="2" fill="none"></path></g><g stroke-linecap="round" transform="translate(11.647449866067973 71.50479499985752) rotate(0 82.37249330338057 51.070945848095974)"><path d="M25.54 0 C64.19 0, 102.85 0, 139.21 0 C156.23 0, 164.74 8.51, 164.74 25.54 C164.74 36.14, 164.74 46.74, 164.74 76.61 C164.74 93.63, 156.23 102.14, 139.21 102.14 C108.54 102.14, 77.88 102.14, 25.54 102.14 C8.51 102.14, 0 93.63, 0 76.61 C0 64.48, 0 52.35, 0 25.54 C0 8.51, 8.51 0, 25.54 0" stroke="none" stroke-width="0" fill="#1e1e1e"></path><path d="M25.54 0 C52.34 0, 79.14 0, 139.21 0 M25.54 0 C63.5 0, 101.47 0, 139.21 0 M139.21 0 C156.23 0, 164.74 8.51, 164.74 25.54 M139.21 0 C156.23 0, 164.74 8.51, 164.74 25.54 M164.74 25.54 C164.74 39.8, 164.74 54.06, 164.74 76.61 M164.74 25.54 C164.74 40.28, 164.74 55.02, 164.74 76.61 M164.74 76.61 C164.74 93.63, 156.23 102.14, 139.21 102.14 M164.74 76.61 C164.74 93.63, 156.23 102.14, 139.21 102.14 M139.21 102.14 C94.07 102.14, 48.93 102.14, 25.54 102.14 M139.21 102.14 C110.67 102.14, 82.14 102.14, 25.54 102.14 M25.54 102.14 C8.51 102.14, 0 93.63, 0 76.61 M25.54 102.14 C8.51 102.14, 0 93.63, 0 76.61 M0 76.61 C0 62.64, 0 48.67, 0 25.54 M0 76.61 C0 56.32, 0 36.04, 0 25.54 M0 25.54 C0 8.51, 8.51 0, 25.54 0 M0 25.54 C0 8.51, 8.51 0, 25.54 0" stroke="#ffffff" stroke-width="2" fill="none"></path></g></svg>